<?xml version="1.0" encoding="UTF-8" standalone="no" ?>
<!DOCTYPE svg PUBLIC "-//W3C//DTD SVG 1.1//EN" "http://www.w3.org/Graphics/SVG/1.1/DTD/svg11.dtd">
<svg xmlns="http://www.w3.org/2000/svg" xmlns:xlink="http://www.w3.org/1999/xlink" version="1.1" width="1080" height="1080" viewBox="0 0 1080 1080" xml:space="preserve">
<desc>Created with Fabric.js 5.2.4</desc>
<defs>
</defs>
<g transform="matrix(1 0 0 1 540 540)" id="0b1d6bae-31fb-4e2b-82e1-840c5d3bb88b"  >
<rect style="stroke: none; stroke-width: 1; stroke-dasharray: none; stroke-linecap: butt; stroke-dashoffset: 0; stroke-linejoin: miter; stroke-miterlimit: 4; fill: rgb(255,255,255); fill-rule: nonzero; opacity: 1; visibility: hidden;" vector-effect="non-scaling-stroke"  x="-540" y="-540" rx="0" ry="0" width="1080" height="1080" />
</g>
<g transform="matrix(1 0 0 1 540 540)" id="a4c5b89c-fe1d-42d5-9b14-ef271ef296c6"  >
</g>
<g transform="matrix(1.27 0 0 -1.27 540.22 513.63)"  >
<path style="stroke: none; stroke-width: 1; stroke-dasharray: none; stroke-linecap: butt; stroke-dashoffset: 0; stroke-linejoin: miter; stroke-miterlimit: 4; fill: rgb(0,0,0); fill-rule: nonzero; opacity: 1;" vector-effect="non-scaling-stroke"  transform=" translate(-230.42, 415.9)" d="M 149.96 -340.67 C 151.85680000000002 -344.0874 153.8298 -347.02950000000004 155.8879 -349.5618 L 155.9128 -349.5867 C 155.9198 -349.5957 155.9305 -349.6028 155.9377 -349.6116 C 154.98964 -349.47325 154.0131 -349.37673 152.9987 -349.3874 C 150.995 -349.4085 148.8433 -349.75277 146.52290000000002 -350.4833 C 150.508 -353.8204 153.90120000000002 -356.26009999999997 156.8839 -358.1547 C 156.811 -358.1307 156.73247 -358.1036 156.65970000000002 -358.08 L 156.8839 -358.20457 C 152.2629 -356.75827 147.2778 -356.58137 141.4419 -359.35026999999997 C 145.63240000000002 -361.97256999999996 149.149 -363.88586999999995 152.2519 -365.32797 C 152.1611 -365.31447 152.06858 -365.29087 151.9779 -365.27817 L 152.2021 -365.40268 C 147.3665 -364.56994999999995 142.3481 -365.03803999999997 136.8841 -368.64058 C 140.4466 -370.22808 143.5416 -371.42638 146.2989 -372.35178 L 146.3238 -372.35178 L 146.49821 -372.45138000000003 C 141.88711 -372.63065 137.31731 -374.06638000000004 132.84921 -378.30448 C 136.75241 -379.27271 140.09421 -379.91928 143.03621 -380.34688 C 142.95361 -380.36358 142.86971 -380.37898 142.78715000000003 -380.39668 C 142.67231000000004 -380.39468 142.55281000000002 -380.39868 142.43845000000002 -380.39668 L 142.56301000000002 -380.44648 C 139.12571000000003 -381.22703 135.77401000000003 -382.95038 132.50101 -386.24988 C 135.15301 -386.82288 137.53931 -387.26798 139.72401000000002 -387.59488000000005 C 137.03441 -388.89498000000003 134.47971 -390.90968000000004 132.15231000000003 -393.99598000000003 C 135.20831000000004 -394.23325000000006 137.91571000000002 -394.33463 140.34671000000003 -394.34469 C 137.40551000000002 -395.70559000000003 134.63401000000002 -397.84229 132.17721000000003 -401.29379 C 136.54211000000004 -401.51193 140.19061000000002 -401.50252 143.33521000000002 -401.31869 C 143.27641000000003 -401.34279 143.21956000000003 -401.36879 143.16089000000002 -401.39339 C 142.96977 -401.41049000000004 142.77792000000002 -401.42269 142.58798000000002 -401.44319 L 142.86200000000002 -401.54279 C 139.59260000000003 -402.97819000000004 136.56660000000002 -405.30429000000004 133.97020000000003 -409.23899 C 139.39480000000003 -409.31819 143.69170000000003 -409.06213 147.29520000000002 -408.61634 C 147.18544000000003 -408.64614 147.08079000000004 -408.68464 146.97137000000004 -408.71594 C 146.83229000000003 -408.72393999999997 146.68532000000005 -408.73064 146.54797000000005 -408.74084 L 146.72230000000005 -408.79064 C 142.47250000000005 -410.05664 138.54830000000004 -412.49534 135.29030000000006 -417.43334 C 139.67230000000006 -417.49724 143.33110000000005 -417.3314 146.47330000000005 -417.03481 C 146.40510000000006 -417.07201 146.34194000000005 -417.12151 146.27404000000004 -417.1594 C 142.51974000000004 -419.2538 139.29234000000005 -422.3995 137.15804000000003 -427.7204 C 141.01184000000003 -426.99046999999996 144.24214000000003 -426.2202 147.04614000000004 -425.404 C 146.99964000000003 -425.4409 146.94285000000005 -425.4661 146.89669000000004 -425.5036 L 147.07101000000003 -425.4787 C 144.18471000000002 -427.6326 141.75821000000002 -430.6506 140.12201000000002 -435.1178 C 142.77531000000002 -434.53125 145.14591000000001 -433.9148 147.27031000000002 -433.29949999999997 C 145.36331 -435.60519999999997 143.89031000000003 -438.48339999999996 143.06111 -442.26599999999996 C 145.94231000000002 -441.205 148.44141000000002 -440.18409999999994 150.65771 -439.17749999999995 C 150.63091 -439.20889999999997 150.60961 -439.24549999999994 150.58301 -439.27709999999996 C 150.53771 -439.3128 150.47758 -439.34099999999995 150.43359 -439.37669999999997 L 150.50829000000002 -439.35179999999997 C 148.47519000000003 -441.7881 146.92389000000003 -444.85189999999994 146.14959000000002 -448.9161 C 150.20609000000002 -447.29409999999996 153.50569000000002 -445.73729999999995 156.28659000000002 -444.25849999999997 C 156.20799000000002 -444.3345 156.11148000000003 -444.40587999999997 156.03752000000003 -444.48262 L 156.11222000000004 -444.45772 C 153.65272000000004 -447.15532 151.81642000000005 -450.62062 151.08102000000002 -455.39172 C 155.86922 -453.27782 159.55862000000002 -451.31332000000003 162.58802000000003 -449.46382 C 162.55602000000002 -449.49662 162.52002000000002 -449.53062 162.48842000000002 -449.56342 L 162.68768000000003 -449.46382 C 159.24808000000002 -452.40952 156.60938000000002 -456.31812 155.68888000000004 -462.29082 C 162.14218000000005 -459.44192 166.65588000000005 -456.86192 170.15988000000004 -454.47002 C 168.65508000000005 -457.51342 167.85998000000004 -461.05951999999996 168.24208000000004 -465.50401999999997 C 174.47908000000004 -460.71891999999997 178.42808000000005 -456.86101999999994 181.36808000000005 -453.44901999999996 C 181.36308000000005 -453.49821999999995 181.37208000000004 -453.54913999999997 181.36808000000005 -453.59847999999994 C 181.18978000000004 -455.76097999999996 181.32458000000005 -458.10567999999995 181.96584000000004 -460.69687999999996 C 185.66354000000004 -454.34407999999996 189.36164000000005 -451.71077999999994 193.12384000000003 -449.53887999999995 C 188.41844000000003 -452.58887999999996 189.26334000000003 -455.0604799999999 189.26334000000003 -457.88277999999997 C 194.85854000000003 -451.99028 202.64234000000002 -445.73177999999996 205.02934000000002 -441.81777999999997 C 201.83834000000002 -446.61008 200.56414 -451.16117999999994 199.72414 -455.16778 C 183.39714 -463.80248 173.43314 -466.06278 162.28914 -469.51378 C 166.61224 -471.09938 171.25244 -472.63958 169.33784 -474.84388 L 164.23184 -479.94988 C 167.49654 -478.93498 170.83114 -477.47178 173.72144 -479.45174000000003 C 173.43777 -482.12954 170.06024 -483.49464 167.17084 -485.05574 C 172.25774 -483.22284 173.35524 -483.65444 174.69274 -484.08439000000004 C 175.36099 -487.29319000000004 173.04034 -489.01379000000003 171.52963999999997 -491.13309000000004 C 184.34263999999996 -481.39069000000006 201.05163999999996 -473.69909 212.82563999999996 -470.48509 C 229.38663999999997 -464.90799000000004 250.75463999999997 -459.09409 256.56264 -444.95509000000004 L 262.36593999999997 -421.64209000000005 C 269.17443999999995 -414.27349000000004 275.43593999999996 -406.64509000000004 278.40594 -397.35809000000006 C 297.36393999999996 -393.69029000000006 312.70094 -395.0049900000001 328.69293999999996 -395.41539000000006 C 327.23533999999995 -395.17247000000003 279.87494 -387.1462900000001 279.87494 -387.1462900000001 C 266.03094 -368.20429000000007 245.37793999999997 -381.0870900000001 238.57894 -399.7992900000001 C 236.86293999999998 -404.5220900000001 227.06993999999997 -404.5116900000001 224.23293999999999 -399.7743900000001 C 213.01494 -375.6223900000001 178.95094 -350.0813900000001 149.95994 -340.6703900000001 L 149.95994 -340.6702300000001 z" stroke-linecap="round" />
</g>
<g transform="matrix(1.27 0 0 -1.27 539.79 511.9)"  >
<path style="stroke: none; stroke-width: 1; stroke-dasharray: none; stroke-linecap: butt; stroke-dashoffset: 0; stroke-linejoin: miter; stroke-miterlimit: 4; fill: rgb(0,128,128); fill-rule: nonzero; opacity: 1;" vector-effect="non-scaling-stroke"  transform=" translate(-230.09, 414.53)" d="M 149.63 -339.31 C 151.5402 -342.7513 153.5262 -345.6875 155.5998 -348.2321 C 154.65176 -348.09381 153.67499999999998 -348.01243 152.6606 -348.02311 C 150.65689999999998 -348.04420999999996 148.51489999999998 -348.37683999999996 146.1944 -349.10740999999996 C 150.2437 -352.49830999999995 153.6658 -354.97290999999996 156.6844 -356.88000999999997 C 152.02110000000002 -355.39050999999995 146.9994 -355.17841 141.1004 -357.97731 C 145.4092 -360.67361 149.0259 -362.62221 152.19140000000002 -364.07781 C 147.25650000000002 -363.16825 142.13940000000002 -363.58271 136.55440000000002 -367.26521 C 140.2418 -368.90841 143.43060000000003 -370.14201 146.26030000000003 -371.07971000000003 C 141.61550000000003 -371.24206000000004 137.01800000000003 -372.67661000000004 132.51830000000004 -376.94501 C 136.42150000000004 -377.91333000000003 139.76560000000003 -378.55531 142.70730000000003 -378.98291 C 139.10690000000002 -379.71036 135.57520000000002 -381.43731 132.15230000000003 -384.88741 C 134.8043 -385.4604 137.19150000000002 -385.89281 139.37620000000004 -386.21990999999997 C 136.68660000000003 -387.51991 134.14000000000004 -389.53461 131.81260000000003 -392.62080999999995 C 134.86860000000004 -392.85808 137.57230000000004 -392.96345999999994 140.00320000000002 -392.97349999999994 C 137.0619 -394.33439999999996 134.3086 -396.48479999999995 131.85180000000003 -399.93619999999993 C 136.21660000000003 -400.1543699999999 139.86270000000002 -400.1331399999999 143.00780000000003 -399.9491999999999 C 139.55140000000003 -401.3621999999999 136.36580000000004 -403.7498999999999 133.64150000000004 -407.8785999999999 C 139.06610000000003 -407.9577999999999 143.36230000000003 -407.6973399999999 146.96550000000005 -407.2515699999999 C 142.49330000000006 -408.4657699999999 138.35350000000005 -410.9072699999999 134.94750000000005 -416.06916999999993 C 139.32950000000005 -416.1330699999999 142.98710000000005 -415.97376999999994 146.12950000000004 -415.67725999999993 C 142.28780000000003 -417.77075999999994 138.98830000000004 -420.94625999999994 136.81560000000005 -426.3632599999999 C 140.77070000000003 -425.61421999999993 144.08540000000005 -424.8123599999999 146.93960000000004 -423.97275999999994 C 143.96650000000005 -426.1363599999999 141.46750000000003 -429.1752599999999 139.79400000000004 -433.74395999999996 C 142.44730000000004 -433.15743999999995 144.80210000000005 -432.54335999999995 146.92650000000003 -431.92815999999993 C 145.01940000000002 -434.23385999999994 143.54940000000002 -437.1197599999999 142.72020000000003 -440.90255999999994 C 145.60140000000004 -439.8414599999999 148.09360000000004 -438.8131599999999 150.30990000000003 -437.80655999999993 C 148.20430000000002 -440.27045999999996 146.59610000000004 -443.38965999999994 145.80310000000003 -447.5516599999999 C 149.85960000000003 -445.9296599999999 153.15910000000002 -444.3799599999999 155.94010000000003 -442.9011599999999 C 153.39070000000004 -445.6264599999999 151.49400000000003 -449.1322599999999 150.74100000000004 -454.0181599999999 C 155.67980000000003 -451.8378599999999 159.46900000000005 -449.8180599999999 162.55000000000004 -447.9176599999999 C 159.01160000000004 -450.8830599999999 156.29080000000005 -454.8261599999999 155.35220000000004 -460.9156599999999 C 161.80560000000003 -458.0666599999999 166.30920000000003 -455.48275999999987 169.81320000000005 -453.0907599999999 C 168.30840000000006 -456.13425999999987 167.51080000000005 -459.6978599999999 167.89290000000005 -464.14175999999986 C 174.12990000000005 -459.35665999999986 178.08090000000004 -455.48335999999983 181.02090000000004 -452.07175999999987 C 180.82259000000005 -454.27495999999985 180.97900000000004 -456.6713599999999 181.63492000000005 -459.32175999999987 C 186.11252000000005 -451.62905999999987 190.56212000000005 -449.38295999999985 195.16692000000006 -446.81575999999984 C 187.83242000000007 -450.50835999999987 188.91972000000007 -453.28825999999987 188.91972000000007 -456.5137599999998 C 194.51492000000007 -450.6213599999998 202.31772000000007 -444.3727599999998 204.70472000000007 -440.4587599999998 C 201.51372000000006 -445.2510599999998 200.21482000000006 -449.7893599999998 199.37502000000006 -453.7957599999998 C 183.04802000000007 -462.4304599999998 173.10702000000006 -464.6867599999998 161.96202000000005 -468.1387599999998 C 166.28502000000006 -469.7243599999998 170.91772000000006 -471.27725999999984 169.00312000000005 -473.48155999999983 L 163.89542000000006 -478.57615999999985 C 167.16012000000006 -477.56135999999987 170.48892000000006 -476.11285999999984 173.37922000000006 -478.0928499999998 C 173.09558000000007 -480.77074999999985 169.71082000000007 -482.1227499999998 166.82142000000005 -483.68384999999984 C 171.90822000000006 -481.85094999999984 173.00832000000005 -482.2742499999998 174.34582000000006 -482.70414999999986 C 175.01407000000006 -485.91294999999985 172.69522000000006 -487.63894999999985 171.18462000000005 -489.75824999999986 C 183.99762000000004 -480.01594999999986 200.71662000000006 -472.31924999999984 212.49062000000004 -469.10524999999984 C 229.05162000000004 -463.52804999999984 250.40562000000003 -457.7312499999998 256.21262 -443.59324999999984 L 262.03882 -420.27524999999986 C 268.84722 -412.90664999999984 275.10982 -405.26524999999987 278.08082 -395.97824999999983 C 297.03882 -392.31044999999983 312.36882 -393.6345499999998 328.36082 -394.0448499999998 C 326.90322 -393.8019899999998 279.53082 -385.7758499999998 279.53082 -385.7758499999998 C 265.68682 -366.8338499999998 245.04982 -379.7090499999998 238.25082 -398.4208499999998 C 236.53482 -403.1436499999998 226.74482 -403.14514999999983 223.90782000000002 -398.4078499999998 C 212.68982000000003 -374.25584999999984 178.62182 -348.7208499999998 149.63082000000003 -339.3098499999998 L 149.63082000000003 -339.3097799999998 z" stroke-linecap="round" />
</g>
<g transform="matrix(1.27 0 0 -1.27 576.54 499.03)"  >
<path style="stroke: none; stroke-width: 1; stroke-dasharray: none; stroke-linecap: butt; stroke-dashoffset: 0; stroke-linejoin: miter; stroke-miterlimit: 4; fill: rgb(255,255,255); fill-rule: nonzero; opacity: 1;" vector-effect="non-scaling-stroke"  transform=" translate(-259.31, 404.53)" d="M 261.48 -388.74 L 261.35544000000004 -388.93925 C 260.86414 -389.85456 260.03314000000006 -390.47935 258.86474000000004 -390.85715 C 257.69634 -391.23496 256.19944000000004 -391.35602 254.45624000000004 -391.28053 L 253.36034000000004 -391.23073 L 254.15737000000004 -392.0029 C 254.56200000000004 -392.39208 254.67504000000005 -392.70276 254.68038000000004 -392.97423000000003 C 254.68638000000004 -393.24578 254.56927000000005 -393.53899 254.30680000000004 -393.87087 C 253.78180000000003 -394.53481000000005 252.73910000000004 -395.25567 251.76630000000003 -395.98807000000005 L 251.44248000000002 -396.21220000000005 L 251.66667 -396.53602000000006 C 252.47820000000002 -397.78102000000007 252.84977 -398.73942000000005 252.93687 -399.4750200000001 C 253.02397 -400.2106600000001 252.85297 -400.7383200000001 252.51349 -401.1935200000001 C 251.83435 -402.1042100000001 250.34358999999998 -402.7212200000001 249.00159 -403.4849200000001 L 248.75253 -403.6094900000001 L 248.80233 -403.9083800000001 C 248.91773 -404.6086400000001 248.72903000000002 -405.18088000000006 248.2295 -405.7514800000001 C 247.72985 -406.3219900000001 246.8888 -406.86608000000007 245.7637 -407.3455800000001 L 245.46483 -407.4700800000001 L 245.51463 -407.7939100000001 C 245.73907 -409.2933100000001 246.18979000000002 -410.5981100000001 247.13363 -411.4303100000001 C 247.99704 -412.19162000000006 249.30323 -412.3923900000001 250.96933 -412.05293000000006 C 251.25977 -413.6513300000001 251.67606 -415.1049300000001 252.63803000000001 -416.0630300000001 C 253.61311 -417.03402000000006 255.15683 -417.32123000000007 257.22093 -416.7852700000001 C 257.68545 -417.9047700000001 258.36423 -418.70247000000006 259.13883 -419.2261700000001 C 259.98933 -419.80115000000006 261.10073 -420.0330800000001 262.01493 -420.31707000000006 L 262.5566 -419.73451000000006 C 261.64919 -419.45270000000005 260.3096 -419.01712000000003 259.5871 -418.5288100000001 C 258.86467000000005 -418.04048000000006 258.27770000000004 -417.37061000000006 257.86850000000004 -416.21251000000007 L 257.74399000000005 -415.81399000000005 L 257.34549000000004 -415.93849000000006 C 255.22299000000004 -416.5907700000001 254.04609000000005 -416.2970700000001 253.23579000000004 -415.4901500000001 C 252.42562000000004 -414.68333000000007 251.96999000000002 -413.2247500000001 251.69159000000005 -411.5299500000001 L 251.61689000000004 -411.0816200000001 L 251.16858000000005 -411.2061200000001 C 249.41918000000004 -411.6625800000001 248.38638000000006 -411.4291200000001 247.68158000000005 -410.8076000000001 C 247.02317000000005 -410.2270500000001 246.63348000000005 -409.1978000000001 246.41138000000007 -407.9184000000001 C 247.42488000000006 -407.4498500000001 248.29368000000005 -406.9373500000001 248.85228000000006 -406.2995000000001 C 249.39791000000005 -405.6763200000001 249.63416000000007 -404.9070000000001 249.59949000000006 -404.1077000000001 C 250.83599000000007 -403.4276000000001 252.32739000000007 -402.8431000000001 253.18609000000006 -401.6917000000001 C 253.63508000000007 -401.0897100000001 253.86828000000006 -400.2984000000001 253.75892000000007 -399.37540000000007 C 253.65952000000007 -398.53557000000006 253.24828000000008 -397.5653000000001 252.53852000000006 -396.41140000000007 C 253.40975000000006 -395.76963000000006 254.35552000000007 -395.1265000000001 254.95442000000006 -394.3690000000001 C 255.28749000000005 -393.9479500000001 255.53792000000004 -393.4818400000001 255.52732000000006 -392.9494000000001 C 255.52132000000006 -392.6557600000001 255.23912000000007 -392.3882700000001 255.07900000000006 -392.10255000000006 C 256.59420000000006 -392.12235000000004 257.97470000000004 -392.0225500000001 259.11390000000006 -391.65422000000007 C 260.31410000000005 -391.26614000000006 261.25700000000006 -390.5588200000001 261.87850000000003 -389.5869200000001 C 263.67190000000005 -389.5959200000001 265.52900000000005 -389.99041000000005 267.4078 -390.2345200000001 C 269.3378 -390.48534000000006 271.3018 -390.5526200000001 273.1614 -389.7363800000001 L 272.8127 -388.9643100000001 C 271.1674 -389.68648000000013 269.4098 -389.65651000000014 267.5324 -389.41263000000015 C 265.655 -389.16866000000016 263.6984 -388.72582000000017 261.729 -388.74010000000015 L 261.47992999999997 -388.74010000000015 z" stroke-linecap="round" />
</g>
<g transform="matrix(1.27 0 0 -1.27 583.6 478.6)"  >
<path style="stroke: rgb(255,255,255); stroke-width: 0.84; stroke-dasharray: none; stroke-linecap: butt; stroke-dashoffset: 0; stroke-linejoin: miter; stroke-miterlimit: 4; fill: rgb(255,255,255); fill-rule: nonzero; opacity: 1;" vector-effect="non-scaling-stroke"  transform=" translate(-264.91, 388.43)" d="M 268.45 -388.43 C 268.45 -390.38460000000003 266.8655 -391.9691 264.91089999999997 -391.9691 C 262.9564 -391.9691 261.3719 -390.38460000000003 261.3719 -388.43 C 261.3719 -386.4755 262.9564 -384.8909 264.91089999999997 -384.8909 C 266.8655 -384.8909 268.45 -386.4754 268.45 -388.43 z" stroke-linecap="round" />
</g>
<g transform="matrix(1.27 0 0 -1.27 597.85 481.49)"  >
<path style="stroke: none; stroke-width: 1; stroke-dasharray: none; stroke-linecap: butt; stroke-dashoffset: 0; stroke-linejoin: miter; stroke-miterlimit: 4; fill: rgb(255,255,255); fill-rule: nonzero; opacity: 1;" vector-effect="non-scaling-stroke"  transform=" translate(-276.16, 390.72)" d="M 279.02 -385.11 C 275.8427 -389.24330000000003 275.0438 -388.17580000000004 273.10949999999997 -388.8687 L 272.78576999999996 -388.99318999999997 L 272.83556999999996 -389.34187 C 273.58030999999994 -393.49346999999995 276.04076999999995 -394.81257 277.96097 -396.32167 L 278.06816999999995 -395.98588 L 278.57930999999996 -395.88848 C 276.65430999999995 -394.37578 274.54790999999994 -393.09448000000003 273.78200999999996 -389.56608 C 275.19060999999994 -389.23285 276.53480999999994 -389.65898 279.53550999999993 -385.75528 L 279.01998999999995 -385.11001000000005 z" stroke-linecap="round" />
</g>
<g transform="matrix(1.27 0 0 -1.27 470.01 453.09)"  >
<path style="stroke: none; stroke-width: 1; stroke-dasharray: none; stroke-linecap: butt; stroke-dashoffset: 0; stroke-linejoin: miter; stroke-miterlimit: 4; fill: rgb(255,255,255); fill-rule: nonzero; opacity: 1;" vector-effect="non-scaling-stroke"  transform=" translate(-175.21, 368.27)" d="M 156.68 -356.87 C 162.68380000000002 -360.5927 172.565 -364.4316 178.911 -368.442 C 182.4021 -370.6649 185.5378 -372.8798 187.9772 -374.7932 C 190.41660000000002 -376.7067 192.2204 -378.6836 192.8839 -379.3263 C 193.54743000000002 -379.96901 193.9978 -379.66535 193.55636 -378.82816 C 193.11497 -377.99104 190.94206000000003 -376.05566000000005 188.47536000000002 -374.12076 C 186.00876000000002 -372.18586 182.87116000000003 -369.98066 179.35936000000004 -367.74456000000004 C 172.33576000000005 -363.27246 164.09236000000004 -359.27376000000004 156.68036000000004 -356.86956000000004 z" stroke-linecap="round" />
</g>
<g transform="matrix(1.27 0 0 -1.27 469.01 442.51)"  >
<path style="stroke: none; stroke-width: 1; stroke-dasharray: none; stroke-linecap: butt; stroke-dashoffset: 0; stroke-linejoin: miter; stroke-miterlimit: 4; fill: rgb(255,255,255); fill-rule: nonzero; opacity: 1;" vector-effect="non-scaling-stroke"  transform=" translate(-174.42, 359.92)" d="M 155.6 -348.23 C 158.11679999999998 -348.81121 161.8314 -350.9578 165.962 -353.25440000000003 C 170.09269999999998 -355.55100000000004 174.5947 -358.37710000000004 178.714 -361.12500000000006 C 182.8336 -363.8729000000001 186.0099 -366.27790000000005 188.549 -368.21530000000007 C 190.96020000000001 -370.2787000000001 192.1507 -371.61480000000006 192.6121 -371.6108000000001 C 192.6754 -371.6235000000001 192.73772 -371.62450000000007 192.8363 -371.6108000000001 C 192.9349 -371.5971000000001 193.10124 -371.5211000000001 193.185 -371.3617300000001 C 193.2687 -371.20249000000007 193.2363 -371.0686500000001 193.2099 -370.9881600000001 C 193.1834 -370.90766000000013 193.1693 -370.86495000000014 193.1352 -370.8137700000001 C 192.99896999999999 -370.6091800000001 192.79104 -370.4175800000001 192.4876 -370.1413300000001 C 191.88066999999998 -369.5888300000001 190.87789999999998 -368.7763300000001 189.5984 -367.8000300000001 C 187.0393 -365.8474300000001 183.32059999999998 -363.1846300000001 179.1874 -360.4275300000001 C 175.054 -357.6704300000001 170.5202 -354.8199300000001 166.3604 -352.50713000000013 C 164.8817 -351.95919000000015 157.6299 -348.12413000000015 155.5994 -348.22993000000014 L 155.5993 -348.22993000000014 z" stroke-linecap="round" />
</g>
<g transform="matrix(1.27 0 0 -1.27 466.99 462.26)"  >
<path style="stroke: none; stroke-width: 1; stroke-dasharray: none; stroke-linecap: butt; stroke-dashoffset: 0; stroke-linejoin: miter; stroke-miterlimit: 4; fill: rgb(255,255,255); fill-rule: nonzero; opacity: 1;" vector-effect="non-scaling-stroke"  transform=" translate(-172.81, 375.52)" d="M 152.16 -364.08 C 159.8658 -367.2253 170.828 -370.9198 178.14499999999998 -375.519 C 182.07649999999998 -378.01550000000003 185.50079999999997 -380.5025 188.058 -382.5428 C 189.3366 -383.5629 190.40449999999998 -384.4799 191.19629999999998 -385.2078 C 191.98806 -385.93581 192.4346 -386.5966 192.6907 -386.77700000000004 C 193.22662 -387.15453 193.63685999999998 -386.90372 193.38809999999998 -386.30371 C 193.20024999999998 -385.8507 192.58039 -385.33103 191.76909999999998 -384.58511000000004 C 190.95780999999997 -383.83926 189.87189999999998 -382.92511 188.581 -381.89511000000005 C 185.99929999999998 -379.83531000000005 182.55239999999998 -377.31061000000005 178.5933 -374.79651000000007 C 170.6752 -369.76851000000005 161.20929999999998 -365.34791000000007 152.1603 -364.0795100000001 z" stroke-linecap="round" />
</g>
<g transform="matrix(1.27 0 0 -1.27 461.76 471.1)"  >
<path style="stroke: none; stroke-width: 1; stroke-dasharray: none; stroke-linecap: butt; stroke-dashoffset: 0; stroke-linejoin: miter; stroke-miterlimit: 4; fill: rgb(255,255,255); fill-rule: nonzero; opacity: 1;" vector-effect="non-scaling-stroke"  transform=" translate(-168.68, 382.49)" d="M 146.23 -371.07 C 152.2355 -371.074 164.641 -376.57099999999997 169.87 -379.3259 C 178.3483 -383.84749999999997 186.058 -389.6599 190.31900000000002 -393.7219 C 190.79146000000003 -394.17237 191.48170000000002 -393.7748 190.94171000000003 -393.14908 C 186.98391000000004 -388.56298000000004 178.80971000000002 -383.15838 170.26871000000003 -378.60308000000003 C 161.72761000000003 -374.04798000000005 152.88371000000004 -371.06278000000003 146.22971 -371.06948000000006 z" stroke-linecap="round" />
</g>
<g transform="matrix(1.27 0 0 -1.27 457.89 480.09)"  >
<path style="stroke: none; stroke-width: 1; stroke-dasharray: none; stroke-linecap: butt; stroke-dashoffset: 0; stroke-linejoin: miter; stroke-miterlimit: 4; fill: rgb(255,255,255); fill-rule: nonzero; opacity: 1;" vector-effect="non-scaling-stroke"  transform=" translate(-165.62, 389.59)" d="M 142.76 -378.98 C 151.7885 -380.3011 162.611 -383.9454 170.49599999999998 -387.8942 C 174.89629999999997 -390.1284 178.82 -392.5214 181.82899999999998 -394.644 C 184.83769999999998 -396.7666 187.05919999999998 -399.1564 187.60739999999998 -399.7748 C 188.15561 -400.39320000000004 188.80859999999998 -400.41896 188.30480999999997 -399.32648 C 187.80098999999998 -398.23398000000003 185.35050999999999 -396.09718 182.30220999999997 -393.94658 C 179.25390999999996 -391.79598 175.30460999999997 -389.39858 170.87021 -387.14688 C 162.00080999999997 -382.64358 151.90021 -379.10078 142.76020999999997 -378.97988000000004 z" stroke-linecap="round" />
</g>
<g transform="matrix(1.27 0 0 -1.27 454.52 488.12)"  >
<path style="stroke: none; stroke-width: 1; stroke-dasharray: none; stroke-linecap: butt; stroke-dashoffset: 0; stroke-linejoin: miter; stroke-miterlimit: 4; fill: rgb(255,255,255); fill-rule: nonzero; opacity: 1;" vector-effect="non-scaling-stroke"  transform=" translate(-162.97, 395.93)" d="M 145.74 -385.7 C 143.49720000000002 -385.50433 141.47830000000002 -385.96422 139.4214 -386.22134 C 147.4436 -385.46957 158.66140000000001 -389.15354 166.1394 -392.59934 C 174.94809999999998 -396.72893999999997 182.26239999999999 -402.39853999999997 185.7664 -405.99933999999996 C 186.31492 -406.56307999999996 186.70251000000002 -405.84472999999997 186.41400000000002 -405.47626999999994 C 183.15140000000002 -401.31096999999994 175.382 -395.99656999999996 166.48800000000003 -391.82726999999994 C 159.81790000000004 -388.70026999999993 152.46900000000002 -386.28736999999995 145.74000000000004 -385.70016999999996 z" stroke-linecap="round" />
</g>
<g transform="matrix(1.27 0 0 -1.27 452.47 494.77)"  >
<path style="stroke: none; stroke-width: 1; stroke-dasharray: none; stroke-linecap: butt; stroke-dashoffset: 0; stroke-linejoin: miter; stroke-miterlimit: 4; fill: rgb(255,255,255); fill-rule: nonzero; opacity: 1;" vector-effect="non-scaling-stroke"  transform=" translate(-161.36, 401.18)" d="M 140.04 -392.93 C 147.93449999999999 -393.51519 158.504 -395.4055 165.908 -398.8042 C 173.3543 -402.287 179.005 -406.80289999999997 181.84799999999998 -409.36519999999996 C 182.28547999999998 -409.75940999999995 183.05919999999998 -409.48015 182.44577999999998 -408.76741999999996 C 179.85108 -405.75262 173.81797999999998 -401.58261999999996 166.28078 -398.05742 C 158.74398 -394.53231999999997 149.58877999999999 -392.27452 140.03978 -392.93041999999997 z" stroke-linecap="round" />
</g>
<g transform="matrix(1.27 0 0 -1.27 450.39 500)"  >
<path style="stroke: none; stroke-width: 1; stroke-dasharray: none; stroke-linecap: butt; stroke-dashoffset: 0; stroke-linejoin: miter; stroke-miterlimit: 4; fill: rgb(255,255,255); fill-rule: nonzero; opacity: 1;" vector-effect="non-scaling-stroke"  transform=" translate(-159.72, 405.32)" d="M 147.13 -399.5 C 145.46439999999998 -399.4436 144.6831 -399.75529 143.0762 -399.9288 C 148.4343 -400.16496 156.9492 -401.59000000000003 161.6512 -403.18620000000004 C 167.753 -405.30320000000006 172.7702 -408.492 175.6242 -410.98220000000003 C 176.17525 -411.46305 176.58605 -410.81794 176.22197 -410.40929000000006 C 173.54917 -407.4098900000001 168.11697 -404.5373900000001 161.92497 -402.38919000000004 C 157.28127 -400.77809 152.12687 -399.66899000000006 147.12997000000001 -399.49999 z" stroke-linecap="round" />
</g>
<g transform="matrix(1.27 0 0 -1.27 449.61 507.25)"  >
<path style="stroke: none; stroke-width: 1; stroke-dasharray: none; stroke-linecap: butt; stroke-dashoffset: 0; stroke-linejoin: miter; stroke-miterlimit: 4; fill: rgb(255,255,255); fill-rule: nonzero; opacity: 1;" vector-effect="non-scaling-stroke"  transform=" translate(-159.12, 411.05)" d="M 146.9 -407.27 C 158.354 -408.0429 165.28 -410.061 170.589 -414.8168 C 170.98681 -415.17316 171.6148 -414.68266 171.18678 -414.21903 C 165.73858 -408.31633 155.01178 -406.67152999999996 146.89978 -407.27002999999996 z" stroke-linecap="round" />
</g>
<g transform="matrix(1.27 0 0 -1.27 446.37 513.77)"  >
<path style="stroke: none; stroke-width: 1; stroke-dasharray: none; stroke-linecap: butt; stroke-dashoffset: 0; stroke-linejoin: miter; stroke-miterlimit: 4; fill: rgb(255,255,255); fill-rule: nonzero; opacity: 1;" vector-effect="non-scaling-stroke"  transform=" translate(-156.56, 416.2)" d="M 155.72 -414.15 C 152.2478 -413.87073 149.3424 -414.62949999999995 146.178 -415.6832 C 155.4385 -414.2072 159.289 -414.91496 166.305 -418.2098 C 167.10483 -418.58536 167.05788 -417.70050999999995 166.70353 -417.48744999999997 C 162.97643 -415.24715 159.19163 -414.42915 155.71953 -414.14995 z" stroke-linecap="round" />
</g>
<g transform="matrix(1.27 0 0 -1.27 446.53 521.36)"  >
<path style="stroke: none; stroke-width: 1; stroke-dasharray: none; stroke-linecap: butt; stroke-dashoffset: 0; stroke-linejoin: miter; stroke-miterlimit: 4; fill: rgb(255,255,255); fill-rule: nonzero; opacity: 1;" vector-effect="non-scaling-stroke"  transform=" translate(-156.69, 422.19)" d="M 155.39 -420.6 C 152.10709999999997 -420.8911 149.31949999999998 -422.01840000000004 147.0212 -423.8877 C 156.1918 -420.353 158.7262 -421.0563 165.7402 -423.04467999999997 C 166.66261 -423.30618 166.37598999999997 -422.41765999999996 166.01415 -422.27250999999995 C 161.81435 -420.58870999999994 158.67325 -420.30890999999997 155.39015 -420.59990999999997 z" stroke-linecap="round" />
</g>
<g transform="matrix(1.27 0 0 -1.27 451.27 529.91)"  >
<path style="stroke: none; stroke-width: 1; stroke-dasharray: none; stroke-linecap: butt; stroke-dashoffset: 0; stroke-linejoin: miter; stroke-miterlimit: 4; fill: rgb(255,255,255); fill-rule: nonzero; opacity: 1;" vector-effect="non-scaling-stroke"  transform=" translate(-160.43, 428.95)" d="M 173.56 -426.28 C 168.6672 -425.75095 163.155 -426.3443 158.317 -427.22646999999995 C 153.4793 -428.10862 149.3186 -429.90097 146.97 -431.8112699999999 C 155.0135 -428.4141699999999 156.4794 -428.42146999999994 158.46699999999998 -428.0483699999999 C 163.23309999999998 -427.1792899999999 167.95749999999998 -426.8403699999999 173.511 -427.10189999999994 C 174.01457 -427.12569999999994 173.98883 -426.32631999999995 173.5608 -426.28000999999995 z" stroke-linecap="round" />
</g>
<g transform="matrix(1.27 0 0 -1.27 455.3 536.33)"  >
<path style="stroke: none; stroke-width: 1; stroke-dasharray: none; stroke-linecap: butt; stroke-dashoffset: 0; stroke-linejoin: miter; stroke-miterlimit: 4; fill: rgb(255,255,255); fill-rule: nonzero; opacity: 1;" vector-effect="non-scaling-stroke"  transform=" translate(-163.61, 434.01)" d="M 176.4 -430.24 C 171.0976 -430.0397 165.621 -431.3519 160.883 -432.7058 C 156.14540000000002 -434.0598 152.62890000000002 -435.9074 150.31 -437.7935 C 155.0021 -435.5365 159.3684 -434.0087 161.107 -433.5028 C 165.7784 -432.16769999999997 170.4909 -431.01189999999997 176.45 -431.0868 C 176.91290999999998 -431.09279999999995 177.21212 -430.27067 176.40019999999998 -430.23996 z" stroke-linecap="round" />
</g>
<g transform="matrix(1.27 0 0 -1.27 461.64 541.61)"  >
<path style="stroke: none; stroke-width: 1; stroke-dasharray: none; stroke-linecap: butt; stroke-dashoffset: 0; stroke-linejoin: miter; stroke-miterlimit: 4; fill: rgb(255,255,255); fill-rule: nonzero; opacity: 1;" vector-effect="non-scaling-stroke"  transform=" translate(-168.61, 438.17)" d="M 180.73 -433.5 C 175.736 -434.23732 170.5 -435.7123 165.935 -437.2609 C 161.3705 -438.8096 158.1214 -440.6488 156.0019 -442.8507 C 161.43120000000002 -439.73420000000004 164.4171 -438.64140000000003 166.1839 -438.0331 C 170.6924 -436.5034 174.9022 -435.4389 180.8789 -434.32189999999997 C 181.59622 -434.18784 181.02014 -433.45703999999995 180.72946 -433.50001 z" stroke-linecap="round" />
</g>
<g transform="matrix(1.27 0 0 -1.27 467.49 547.42)"  >
<path style="stroke: none; stroke-width: 1; stroke-dasharray: none; stroke-linecap: butt; stroke-dashoffset: 0; stroke-linejoin: miter; stroke-miterlimit: 4; fill: rgb(255,255,255); fill-rule: nonzero; opacity: 1;" vector-effect="non-scaling-stroke"  transform=" translate(-173.24, 442.76)" d="M 183.27 -437.66 C 173.255 -439.25530000000003 166.76500000000001 -443.57620000000003 162.64000000000001 -447.86100000000005 C 169.0328 -443.0445 173.48000000000002 -440.4560000000001 183.44400000000002 -438.48160000000007 C 184.07466000000002 -438.35663000000005 183.88419000000002 -437.56176000000005 183.26967000000002 -437.65963000000005 z" stroke-linecap="round" />
</g>
<g transform="matrix(1.27 0 0 -1.27 475.19 553.01)"  >
<path style="stroke: none; stroke-width: 1; stroke-dasharray: none; stroke-linecap: butt; stroke-dashoffset: 0; stroke-linejoin: miter; stroke-miterlimit: 4; fill: rgb(255,255,255); fill-rule: nonzero; opacity: 1;" vector-effect="non-scaling-stroke"  transform=" translate(-179.32, 447.17)" d="M 188.15 -441.32 C 178.077 -442.8716 172.268 -448.995 169.84900000000002 -453.037 C 176.2221 -446.6705 181.18200000000002 -443.2056 188.324 -442.142 C 189.04681000000002 -442.03441 188.86237 -441.21029 188.14968000000002 -441.32011 z" stroke-linecap="round" />
</g>
<g transform="matrix(1.27 0 0 -1.27 484.12 554.34)"  >
<path style="stroke: none; stroke-width: 1; stroke-dasharray: none; stroke-linecap: butt; stroke-dashoffset: 0; stroke-linejoin: miter; stroke-miterlimit: 4; fill: rgb(255,255,255); fill-rule: nonzero; opacity: 1;" vector-effect="non-scaling-stroke"  transform=" translate(-186.38, 448.23)" d="M 191.19 -444.51 C 189.619 -444.70615 187.4812 -445.8187 185.4614 -447.1003 C 183.4416 -448.38190000000003 181.9176 -449.9413 181.0088 -451.9504 C 183.4418 -449.4394 184.41580000000002 -448.76 185.90970000000002 -447.7977 C 187.84890000000001 -446.5672 189.80310000000003 -445.79220000000004 191.38920000000002 -445.3319 C 192.13274 -445.11613 191.57084 -444.46241000000003 191.18993 -444.51 z" stroke-linecap="round" />
</g>
<g transform="matrix(1.27 0 0 -1.27 583.6 478.6)"  >
<path style="stroke: rgb(255,255,255); stroke-width: 0.84; stroke-dasharray: none; stroke-linecap: butt; stroke-dashoffset: 0; stroke-linejoin: miter; stroke-miterlimit: 4; fill: rgb(255,255,255); fill-rule: nonzero; opacity: 1;" vector-effect="non-scaling-stroke"  transform=" translate(-264.91, 388.43)" d="M 268.45 -388.43 C 268.45 -390.38460000000003 266.8655 -391.9691 264.91089999999997 -391.9691 C 262.9564 -391.9691 261.3719 -390.38460000000003 261.3719 -388.43 C 261.3719 -386.4755 262.9564 -384.8909 264.91089999999997 -384.8909 C 266.8655 -384.8909 268.45 -386.4754 268.45 -388.43 z" stroke-linecap="round" />
</g>
<g transform="matrix(1.27 0 0 -1.27 583.6 478.6)"  >
<path style="stroke: rgb(255,255,255); stroke-width: 0.84; stroke-dasharray: none; stroke-linecap: butt; stroke-dashoffset: 0; stroke-linejoin: miter; stroke-miterlimit: 4; fill: rgb(55,200,113); fill-rule: nonzero; opacity: 1;" vector-effect="non-scaling-stroke"  transform=" translate(-264.91, 388.43)" d="M 268.45 -388.43 C 268.45 -390.38460000000003 266.8655 -391.9691 264.91089999999997 -391.9691 C 262.9564 -391.9691 261.3719 -390.38460000000003 261.3719 -388.43 C 261.3719 -386.4755 262.9564 -384.8909 264.91089999999997 -384.8909 C 266.8655 -384.8909 268.45 -386.4754 268.45 -388.43 z" stroke-linecap="round" />
</g>
</svg>